<mxfile host="Electron" agent="Mozilla/5.0 (Windows NT 10.0; Win64; x64) AppleWebKit/537.36 (KHTML, like Gecko) draw.io/26.1.1 Chrome/132.0.6834.210 Electron/34.3.3 Safari/537.36" version="26.1.1">
  <diagram name="Page-1" id="mWyFsXs34Wb2mTSD8mDR">
    <mxGraphModel dx="1034" dy="559" grid="1" gridSize="10" guides="1" tooltips="1" connect="1" arrows="1" fold="1" page="1" pageScale="1" pageWidth="850" pageHeight="1100" math="0" shadow="0">
      <root>
        <mxCell id="0" />
        <mxCell id="1" parent="0" />
        <mxCell id="_5bfywGitNkn-U-0SJaP-1" value="Cotação" style="rounded=0;whiteSpace=wrap;html=1;" parent="1" vertex="1">
          <mxGeometry x="170" y="210" width="120" height="60" as="geometry" />
        </mxCell>
        <mxCell id="3ZVcPanaxvUXTc7rFaf5-2" style="edgeStyle=orthogonalEdgeStyle;rounded=0;orthogonalLoop=1;jettySize=auto;html=1;exitX=0;exitY=0.5;exitDx=0;exitDy=0;" parent="1" source="_5bfywGitNkn-U-0SJaP-2" target="_5bfywGitNkn-U-0SJaP-1" edge="1">
          <mxGeometry relative="1" as="geometry">
            <Array as="points">
              <mxPoint x="440" y="180" />
              <mxPoint x="440" y="240" />
            </Array>
          </mxGeometry>
        </mxCell>
        <mxCell id="3ZVcPanaxvUXTc7rFaf5-3" value="Consulta cotação" style="edgeLabel;html=1;align=center;verticalAlign=middle;resizable=0;points=[];" parent="3ZVcPanaxvUXTc7rFaf5-2" vertex="1" connectable="0">
          <mxGeometry x="-0.3129" y="-2" relative="1" as="geometry">
            <mxPoint x="64" y="-8" as="offset" />
          </mxGeometry>
        </mxCell>
        <mxCell id="_5bfywGitNkn-U-0SJaP-2" value="Operações" style="rounded=0;whiteSpace=wrap;html=1;" parent="1" vertex="1">
          <mxGeometry x="590" y="150" width="120" height="60" as="geometry" />
        </mxCell>
        <mxCell id="_5bfywGitNkn-U-0SJaP-3" value="DB" style="shape=cylinder3;whiteSpace=wrap;html=1;boundedLbl=1;backgroundOutline=1;size=15;" parent="1" vertex="1">
          <mxGeometry x="360" y="400" width="60" height="80" as="geometry" />
        </mxCell>
        <mxCell id="_5bfywGitNkn-U-0SJaP-4" style="edgeStyle=orthogonalEdgeStyle;rounded=0;orthogonalLoop=1;jettySize=auto;html=1;entryX=1;entryY=0.5;entryDx=0;entryDy=0;entryPerimeter=0;exitX=0.5;exitY=1;exitDx=0;exitDy=0;" parent="1" source="_5bfywGitNkn-U-0SJaP-2" target="_5bfywGitNkn-U-0SJaP-3" edge="1">
          <mxGeometry relative="1" as="geometry" />
        </mxCell>
        <mxCell id="3ZVcPanaxvUXTc7rFaf5-1" value="Insere operações no banco" style="edgeLabel;html=1;align=center;verticalAlign=middle;resizable=0;points=[];" parent="_5bfywGitNkn-U-0SJaP-4" vertex="1" connectable="0">
          <mxGeometry x="-0.1167" y="1" relative="1" as="geometry">
            <mxPoint x="-11" y="-184" as="offset" />
          </mxGeometry>
        </mxCell>
        <mxCell id="_5bfywGitNkn-U-0SJaP-5" style="edgeStyle=orthogonalEdgeStyle;rounded=0;orthogonalLoop=1;jettySize=auto;html=1;entryX=0;entryY=0.5;entryDx=0;entryDy=0;entryPerimeter=0;exitX=0.5;exitY=1;exitDx=0;exitDy=0;" parent="1" source="_5bfywGitNkn-U-0SJaP-1" target="_5bfywGitNkn-U-0SJaP-3" edge="1">
          <mxGeometry relative="1" as="geometry" />
        </mxCell>
        <mxCell id="_5bfywGitNkn-U-0SJaP-8" value="- Atualizar cotação no banco e no cache&lt;div&gt;- Consultar cotação de um ativo&lt;/div&gt;" style="text;html=1;align=left;verticalAlign=top;whiteSpace=wrap;rounded=0;" parent="1" vertex="1">
          <mxGeometry x="240" y="155" width="180" height="50" as="geometry" />
        </mxCell>
        <mxCell id="_5bfywGitNkn-U-0SJaP-10" style="edgeStyle=orthogonalEdgeStyle;rounded=0;orthogonalLoop=1;jettySize=auto;html=1;entryX=0;entryY=0.5;entryDx=0;entryDy=0;exitX=0.5;exitY=1;exitDx=0;exitDy=0;" parent="1" source="_5bfywGitNkn-U-0SJaP-9" target="_5bfywGitNkn-U-0SJaP-1" edge="1">
          <mxGeometry relative="1" as="geometry" />
        </mxCell>
        <mxCell id="_5bfywGitNkn-U-0SJaP-11" value="Kafka" style="edgeLabel;html=1;align=center;verticalAlign=middle;resizable=0;points=[];" parent="_5bfywGitNkn-U-0SJaP-10" vertex="1" connectable="0">
          <mxGeometry x="-0.1879" y="-1" relative="1" as="geometry">
            <mxPoint as="offset" />
          </mxGeometry>
        </mxCell>
        <mxCell id="_5bfywGitNkn-U-0SJaP-9" value="Microserviço externo" style="ellipse;whiteSpace=wrap;html=1;aspect=fixed;" parent="1" vertex="1">
          <mxGeometry x="30" y="40" width="80" height="80" as="geometry" />
        </mxCell>
        <mxCell id="_5bfywGitNkn-U-0SJaP-12" value="Atualiza posição (preço médio) dos usuários ao atualizar cotação usando trigger.&lt;div&gt;&lt;br&gt;&lt;/div&gt;&lt;div&gt;Outro mecanismo deveria ser usado ao passar para um banco de dados distrbuído&lt;/div&gt;" style="text;html=1;align=left;verticalAlign=middle;whiteSpace=wrap;rounded=0;" parent="1" vertex="1">
          <mxGeometry x="130" y="450" width="220" height="100" as="geometry" />
        </mxCell>
        <mxCell id="_5bfywGitNkn-U-0SJaP-13" value="Idealmente as migrations do banco de dados ficariam em um repositório separado, porém para simplificar deixaremos junto com um microserviço" style="text;html=1;align=left;verticalAlign=middle;whiteSpace=wrap;rounded=0;" parent="1" vertex="1">
          <mxGeometry x="430" y="440" width="250" height="80" as="geometry" />
        </mxCell>
        <mxCell id="ppWprysIwRqa-nB_dQej-1" value="- Registrar operações de um usuário&lt;div&gt;&lt;span style=&quot;white-space: pre;&quot;&gt;&#x9;&lt;/span&gt;- Atualizar posicao também&lt;br&gt;&lt;div&gt;&lt;div&gt;- Calcular preço médio de operações&lt;/div&gt;&lt;/div&gt;&lt;/div&gt;" style="text;html=1;align=left;verticalAlign=top;whiteSpace=wrap;rounded=0;" parent="1" vertex="1">
          <mxGeometry x="710" y="145" width="250" height="80" as="geometry" />
        </mxCell>
        <mxCell id="ppWprysIwRqa-nB_dQej-4" style="edgeStyle=orthogonalEdgeStyle;rounded=0;orthogonalLoop=1;jettySize=auto;html=1;exitX=0.5;exitY=1;exitDx=0;exitDy=0;" parent="1" source="ppWprysIwRqa-nB_dQej-2" target="_5bfywGitNkn-U-0SJaP-3" edge="1">
          <mxGeometry relative="1" as="geometry" />
        </mxCell>
        <mxCell id="rgPpn1bz8WZouEOh322I-1" style="edgeStyle=orthogonalEdgeStyle;rounded=0;orthogonalLoop=1;jettySize=auto;html=1;entryX=1;entryY=0.5;entryDx=0;entryDy=0;" parent="1" source="ppWprysIwRqa-nB_dQej-2" target="_5bfywGitNkn-U-0SJaP-1" edge="1">
          <mxGeometry relative="1" as="geometry">
            <Array as="points">
              <mxPoint x="440" y="390" />
              <mxPoint x="440" y="240" />
            </Array>
          </mxGeometry>
        </mxCell>
        <mxCell id="rgPpn1bz8WZouEOh322I-2" value="Consulta cotação" style="edgeLabel;html=1;align=center;verticalAlign=middle;resizable=0;points=[];" parent="rgPpn1bz8WZouEOh322I-1" vertex="1" connectable="0">
          <mxGeometry x="-0.8989" y="2" relative="1" as="geometry">
            <mxPoint x="-21" y="-12" as="offset" />
          </mxGeometry>
        </mxCell>
        <mxCell id="txIbintPTXhFHJ-PRgfx-1" style="edgeStyle=orthogonalEdgeStyle;rounded=0;orthogonalLoop=1;jettySize=auto;html=1;" edge="1" parent="1" source="ppWprysIwRqa-nB_dQej-2" target="3ZVcPanaxvUXTc7rFaf5-5">
          <mxGeometry relative="1" as="geometry" />
        </mxCell>
        <mxCell id="ppWprysIwRqa-nB_dQej-2" value="Estatísticas" style="rounded=0;whiteSpace=wrap;html=1;" parent="1" vertex="1">
          <mxGeometry x="720" y="360" width="120" height="60" as="geometry" />
        </mxCell>
        <mxCell id="ppWprysIwRqa-nB_dQej-3" value="- Consultar a posição de um cliente&lt;div&gt;-&amp;nbsp;Consultar o preço médio por ativo para um cliente&lt;/div&gt;&lt;div&gt;-&amp;nbsp;Ver o valor financeiro ganho pela corretora com as corretagens&lt;/div&gt;&lt;div&gt;- Consultar os top 10 clientes que:&lt;/div&gt;&lt;div&gt;&lt;span style=&quot;white-space: pre;&quot;&gt;&#x9;&lt;/span&gt;- Mais pagaram corretagem&lt;br&gt;&lt;/div&gt;&lt;div&gt;&lt;span style=&quot;white-space: pre;&quot;&gt;&#x9;&lt;/span&gt;- Com maiores posições globais&lt;br&gt;&lt;/div&gt;" style="text;html=1;align=left;verticalAlign=top;whiteSpace=wrap;rounded=0;" parent="1" vertex="1">
          <mxGeometry x="850" y="360" width="280" height="150" as="geometry" />
        </mxCell>
        <mxCell id="3ZVcPanaxvUXTc7rFaf5-5" value="Redis" style="shape=cylinder3;whiteSpace=wrap;html=1;boundedLbl=1;backgroundOutline=1;size=15;" parent="1" vertex="1">
          <mxGeometry x="410" y="20" width="60" height="80" as="geometry" />
        </mxCell>
        <mxCell id="3ZVcPanaxvUXTc7rFaf5-6" style="edgeStyle=orthogonalEdgeStyle;rounded=0;orthogonalLoop=1;jettySize=auto;html=1;entryX=1;entryY=0.5;entryDx=0;entryDy=0;entryPerimeter=0;exitX=0.5;exitY=0;exitDx=0;exitDy=0;" parent="1" source="_5bfywGitNkn-U-0SJaP-2" target="3ZVcPanaxvUXTc7rFaf5-5" edge="1">
          <mxGeometry relative="1" as="geometry" />
        </mxCell>
        <mxCell id="3ZVcPanaxvUXTc7rFaf5-8" value="Cache de cotações para fallback e performance" style="text;html=1;align=center;verticalAlign=middle;whiteSpace=wrap;rounded=0;" parent="1" vertex="1">
          <mxGeometry x="470" y="10" width="150" height="30" as="geometry" />
        </mxCell>
        <mxCell id="3ZVcPanaxvUXTc7rFaf5-9" style="edgeStyle=orthogonalEdgeStyle;rounded=0;orthogonalLoop=1;jettySize=auto;html=1;entryX=0;entryY=0.5;entryDx=0;entryDy=0;entryPerimeter=0;exitX=0.5;exitY=0;exitDx=0;exitDy=0;" parent="1" source="_5bfywGitNkn-U-0SJaP-1" target="3ZVcPanaxvUXTc7rFaf5-5" edge="1">
          <mxGeometry relative="1" as="geometry" />
        </mxCell>
      </root>
    </mxGraphModel>
  </diagram>
</mxfile>
